Coordinates
version=1
nRows=16
nColumns=63
inDegrees=yes

Units are S.I. units (second, meters, Newtons, ...)
If the header above contains a line with 'inDegrees', this indicates whether rotational values are in degrees (yes) or radians (no).

endheader
time	pelvis_tilt	pelvis_list	pelvis_rotation	pelvis_tx	pelvis_ty	pelvis_tz	hip_flexion_r	hip_adduction_r	hip_rotation_r	knee_angle_r	knee_angle_r_beta	ankle_angle_r	subtalar_angle_r	mtp_angle_r	hip_flexion_l	hip_adduction_l	hip_rotation_l	knee_angle_l	knee_angle_l_beta	ankle_angle_l	subtalar_angle_l	mtp_angle_l	L5_S1_Flex_Ext	L5_S1_Lat_Bending	L5_S1_axial_rotation	L4_L5_Flex_Ext	L4_L5_Lat_Bending	L4_L5_axial_rotation	L3_L4_Flex_Ext	L3_L4_Lat_Bending	L3_L4_axial_rotation	L2_L3_Flex_Ext	L2_L3_Lat_Bending	L2_L3_axial_rotation	L1_L2_Flex_Ext	L1_L2_Lat_Bending	L1_L2_axial_rotation	L1_T12_Flex_Ext	L1_T12_Lat_Bending	L1_T12_axial_rotation	Abs_r3	Abs_r2	Abs_r1	Abs_t1	Abs_t2	neck_flexion	neck_bending	neck_rotation	arm_flex_r	arm_add_r	arm_rot_r	elbow_flex_r	pro_sup_r	wrist_flex_r	wrist_dev_r	arm_flex_l	arm_add_l	arm_rot_l	elbow_flex_l	pro_sup_l	wrist_flex_l	wrist_dev_l
0.000000	2.141192	-3.427305	96.438761	0.216960	0.995912	0.452330	6.443698	1.705456	-2.273776	8.722732	0.152240	28.806372	-9.056716	0.000000	4.342182	-1.192603	11.909957	1.985218	0.034649	26.677473	-5.799749	0.000000	0.331983	0.402069	-1.383270	0.616526	0.534751	-1.469724	0.545415	0.977590	-1.469724	0.379423	0.977590	-1.210361	0.308279	0.819898	-1.123907	0.189695	0.622804	-1.037453	2.371321	4.548280	-7.693333	0.000000	0.000000	27.808475	3.495538	14.491052	19.494588	-0.731010	87.743597	30.080224	23.948995	-5.181124	21.241941	19.199089	3.083179	63.439480	31.462187	53.998727	-2.159911	22.313481
0.016667	2.171665	-3.506938	96.290454	0.217901	0.995390	0.452602	6.378838	1.721749	-3.175157	8.155060	0.142333	29.858832	-7.250231	0.000000	4.286240	-1.329451	12.600930	1.590259	0.027755	26.328730	-6.498725	0.000000	0.342383	0.394652	-1.372169	0.635840	0.524888	-1.457930	0.562502	0.959558	-1.457930	0.391310	0.959558	-1.200648	0.317937	0.804775	-1.114887	0.195638	0.611317	-1.029127	2.445610	4.464387	-7.631593	0.000000	0.000000	27.868201	4.036177	15.291958	20.078226	-0.804455	89.124958	30.413769	19.635823	-5.256144	21.435564	19.196513	2.854292	63.279460	31.314007	56.745149	-1.324419	23.024651
0.033333	2.206699	-3.566889	96.172466	0.218653	0.994968	0.452831	6.314890	1.751343	-3.777391	7.684967	0.134128	30.622422	-5.945880	0.000000	4.239592	-1.448673	13.125488	1.274543	0.022245	26.066827	-7.022253	0.000000	0.349374	0.390527	-1.360625	0.648822	0.519401	-1.445664	0.573986	0.949528	-1.445664	0.399299	0.949528	-1.190547	0.324429	0.796363	-1.105508	0.199632	0.604927	-1.020469	2.495543	4.417723	-7.567388	0.000000	0.000000	27.905523	4.412081	15.820927	20.645844	-0.813769	90.704886	30.639632	16.279454	-5.140576	21.482392	19.228221	2.710915	63.323939	31.117039	59.125536	-0.519429	23.560853
0.050000	2.245300	-3.609505	96.081881	0.219231	0.994637	0.453020	6.253331	1.791998	-4.112795	7.305145	0.127499	31.126790	-5.092290	0.000000	4.203083	-1.551093	13.494721	1.033043	0.018030	25.886350	-7.380336	0.000000	0.353318	0.389297	-1.348754	0.656147	0.517765	-1.433051	0.580466	0.946538	-1.433051	0.403807	0.946538	-1.180159	0.328091	0.793855	-1.095862	0.201886	0.603022	-1.011565	2.523716	4.403809	-7.501363	0.000000	0.000000	27.923242	4.641311	16.106804	21.193616	-0.767089	92.443239	30.768568	13.798487	-4.857171	21.402455	19.290262	2.643981	63.550407	30.877629	61.167517	0.251942	23.935245
0.066667	2.286477	-3.637133	96.015782	0.219653	0.994389	0.453171	6.195639	1.841470	-4.213689	7.008284	0.122318	31.401586	-4.638088	0.000000	4.177556	-1.637538	13.719715	0.860734	0.015023	25.781884	-7.582980	0.000000	0.354580	0.390567	-1.336671	0.658490	0.519454	-1.420212	0.582539	0.949624	-1.420212	0.405249	0.949624	-1.169587	0.329263	0.796443	-1.086045	0.202607	0.604988	-1.002503	2.532727	4.418167	-7.434161	0.000000	0.000000	27.924159	4.741926	16.178434	21.717717	-0.672549	94.299877	30.811333	12.111522	-4.428680	21.215781	19.378684	2.644422	63.936352	30.602119	62.898719	0.986579	24.160988
0.083333	2.329239	-3.652121	95.971251	0.219934	0.994218	0.453287	6.143294	1.897517	-4.112390	6.787075	0.118457	31.476460	-4.531902	0.000000	4.163857	-1.708834	13.811561	0.752588	0.013135	25.748015	-7.640190	0.000000	0.353522	0.393939	-1.324492	0.656526	0.523939	-1.407273	0.580801	0.957823	-1.407273	0.404040	0.957823	-1.158930	0.328281	0.803320	-1.076150	0.202002	0.610212	-0.993369	2.525172	4.456317	-7.366426	0.000000	0.000000	27.911072	4.731983	16.064662	22.214320	-0.538286	96.234660	30.778683	11.137162	-3.877854	20.942401	19.489538	2.703169	64.459265	30.296854	64.346771	1.681366	24.251243
0.100000	2.372594	-3.656816	95.945372	0.220092	0.994115	0.453370	6.097773	1.957898	-3.841216	6.634209	0.115789	31.381061	-4.722358	0.000000	4.162829	-1.765805	13.781345	0.703579	0.012280	25.779328	-7.561970	0.000000	0.350509	0.399019	-1.312333	0.650930	0.530695	-1.394354	0.575851	0.970174	-1.394354	0.400597	0.970174	-1.148291	0.325483	0.813679	-1.066271	0.200281	0.618080	-0.984250	2.503650	4.513779	-7.298803	0.000000	0.000000	27.886783	4.629542	15.794333	22.679600	-0.372436	98.207446	30.681376	10.794004	-3.227445	20.602344	19.618871	2.811157	65.096633	29.968179	65.539300	2.333188	24.219169
0.116667	2.415550	-3.653564	95.935227	0.220144	0.994073	0.453422	6.060555	2.020369	-3.432487	6.542376	0.114186	31.145038	-5.158082	0.000000	4.175318	-1.809279	13.640155	0.708681	0.012369	25.870410	-7.358328	0.000000	0.345904	0.405410	-1.300310	0.642378	0.539195	-1.381580	0.568285	0.985713	-1.381580	0.395333	0.985713	-1.137772	0.321206	0.826711	-1.056502	0.197649	0.627980	-0.975233	2.470756	4.586075	-7.231936	0.000000	0.000000	27.854092	4.452663	15.396292	23.109731	-0.183133	100.178095	30.530166	11.000651	-2.500203	20.215639	19.762733	2.959316	65.825947	29.622437	66.503934	2.938928	24.077926
0.133333	2.457115	-3.644712	95.937899	0.220106	0.994084	0.453445	6.033119	2.082689	-2.918519	6.504266	0.113521	30.798042	-5.787703	0.000000	4.202168	-1.840080	13.399081	0.762867	0.013315	26.015846	-7.039266	0.000000	0.340070	0.412716	-1.288539	0.631545	0.548912	-1.369073	0.558702	1.003478	-1.369073	0.388666	1.003478	-1.127472	0.315789	0.841610	-1.046938	0.194316	0.639297	-0.966404	2.429089	4.668726	-7.166469	0.000000	0.000000	27.815798	4.219404	14.899384	23.500888	0.021485	102.106467	30.335810	11.675703	-1.718880	19.802317	19.917173	3.138580	66.624696	29.265973	67.268302	3.495472	23.840675
0.150000	2.496298	-3.632609	95.950472	0.219996	0.994140	0.453443	6.016942	2.142614	-2.331632	6.512571	0.113666	30.369721	-6.559846	0.000000	4.244223	-1.859035	13.069210	0.861111	0.015029	26.210222	-6.614791	0.000000	0.333372	0.420542	-1.277136	0.619106	0.559320	-1.356957	0.547697	1.022505	-1.356957	0.381011	1.022505	-1.117494	0.309569	0.857568	-1.037673	0.190489	0.651419	-0.957852	2.381244	4.757251	-7.103046	0.000000	0.000000	27.774702	3.947825	14.332454	23.849244	0.233284	103.952421	30.109064	12.737760	-0.906226	19.382407	20.078241	3.339881	67.470368	28.905131	67.860032	3.999703	23.520576
0.166667	2.532107	-3.619600	95.970027	0.219829	0.994235	0.453418	6.013502	2.197904	-1.704143	6.559980	0.114493	29.889726	-7.423139	0.000000	4.302327	-1.866969	12.661631	0.998385	0.017425	26.448124	-6.094908	0.000000	0.326173	0.428491	-1.266216	0.605736	0.569893	-1.345354	0.535869	1.041832	-1.345354	0.372783	1.041832	-1.107939	0.302884	0.873778	-1.028800	0.186375	0.663732	-0.949662	2.329820	4.847172	-7.042312	0.000000	0.000000	27.733603	3.655983	13.724349	24.150974	0.444128	105.675815	29.860684	14.105423	-0.084994	18.975938	20.241984	3.554151	68.340454	28.546255	68.306751	4.448507	23.130789
0.183333	2.557067	-3.616419	95.981501	0.219615	0.994392	0.453349	6.041487	2.224780	-1.272809	6.655173	0.116155	29.484273	-8.004754	0.000000	4.399299	-1.858731	12.092802	1.189212	0.020756	26.815205	-5.292806	0.000000	0.320473	0.435446	-1.255827	0.595151	0.579143	-1.334316	0.526505	1.058742	-1.334316	0.366269	1.058742	-1.098848	0.297591	0.887961	-1.020359	0.183118	0.674505	-0.941870	2.289107	4.925847	-6.984532	0.000000	0.000000	27.714218	3.440785	13.272168	24.317573	0.636072	106.953549	29.568780	15.916340	0.737595	18.626031	20.411379	3.751301	69.342088	28.181206	68.237507	4.719178	22.745189
0.200000	2.575645	-3.623235	95.978027	0.219437	0.994554	0.453247	6.095580	2.252987	-0.736404	6.761603	0.118012	29.071523	-8.773614	0.000000	4.512855	-1.842067	11.608724	1.394359	0.024336	27.148901	-4.636627	0.000000	0.315705	0.440873	-1.243103	0.586297	0.586361	-1.320797	0.518673	1.071938	-1.320797	0.360820	1.071938	-1.087715	0.293164	0.899028	-1.010021	0.180394	0.682912	-0.932327	2.255053	4.987241	-6.913764	0.000000	0.000000	27.703384	3.260643	12.803888	24.460119	0.782732	108.056057	29.333915	17.532492	1.429628	18.380912	20.555620	3.942170	70.156282	27.841461	68.478352	5.023433	22.268482
0.216667	2.589001	-3.633400	95.977813	0.219268	0.994723	0.453137	6.162284	2.270720	-0.275302	6.866085	0.119836	28.718267	-9.473690	0.000000	4.641914	-1.819621	11.103259	1.621464	0.028300	27.474678	-3.962074	0.000000	0.310837	0.445131	-1.234603	0.577255	0.592025	-1.311766	0.510674	1.082292	-1.311766	0.355255	1.082292	-1.080278	0.288643	0.907712	-1.003115	0.177612	0.689508	-0.925952	2.220277	5.035413	-6.866492	0.000000	0.000000	27.699084	3.098989	12.339554	24.597626	0.904285	109.038076	29.125267	19.016294	2.069921	18.229417	20.681866	4.111471	70.843403	27.544106	68.940436	5.292280	21.711591
0.233333	2.599187	-3.647973	95.980757	0.219110	0.994885	0.453025	6.240501	2.280057	0.114532	6.968638	0.121626	28.433311	-10.083428	0.000000	4.784809	-1.793700	10.538065	1.865784	0.032564	27.795296	-3.235638	0.000000	0.306426	0.448351	-1.226982	0.569065	0.596307	-1.303668	0.503428	1.090121	-1.303668	0.350215	1.090121	-1.073609	0.284548	0.914278	-0.996923	0.175092	0.694496	-0.920236	2.188773	5.071840	-6.824105	0.000000	0.000000	27.696799	2.958216	11.897445	24.694187	0.987503	109.774482	28.963190	20.396926	2.589959	18.194251	20.790906	4.259295	71.427548	27.291851	69.502906	5.515204	21.125823
0.250000	2.619346	-3.673419	96.006933	0.218963	0.995017	0.452931	6.323860	2.301610	0.516707	7.045597	0.122969	28.176907	-10.734395	0.000000	4.959876	-1.777343	9.980329	2.145207	0.037441	28.122577	-2.510992	0.000000	0.303182	0.451831	-1.224296	0.563040	0.600935	-1.300815	0.498098	1.098582	-1.300815	0.346507	1.098582	-1.071259	0.281535	0.921374	-0.994741	0.173238	0.699886	-0.918222	2.165601	5.111203	-6.809169	0.000000	0.000000	27.714191	2.874575	11.540408	24.722048	1.036672	110.226344	28.820386	21.551803	2.994583	18.247834	20.871146	4.380962	71.852526	27.092506	70.253820	5.723768	20.530484
